<?xml version="1.0" standalone="no"?>
<!DOCTYPE svg PUBLIC "-//W3C//DTD SVG 1.1//EN" "http://www.w3.org/Graphics/SVG/1.1/DTD/svg11.dtd" >
<svg xmlns="http://www.w3.org/2000/svg">
  <metadata>Created by iconfont</metadata>
  <defs>
  <font id="iconfont" horiz-adv-x="1024">
    <font-face
      font-family="iconfont"
      font-weight="400"
      font-stretch="normal"
      units-per-em="1024"
      ascent="896"
      descent="-128"
    />
      <missing-glyph />
      
      <glyph glyph-name="shannianbiji" unicode="&#59073;" d="M725.333333 832a170.666667 170.666667 0 0 0 170.666667-170.666667v-554.666666a170.666667 170.666667 0 0 0-170.666667-170.666667H277.333333a170.666667 170.666667 0 0 0-170.666666 170.666667V661.333333a170.666667 170.666667 0 0 0 170.666666 170.666667h448z m0-74.666667H277.333333a96 96 0 0 1-95.893333-91.477333L181.333333 661.333333v-554.666666a96 96 0 0 1 91.477334-95.893334L277.333333 10.666666999999961h448a96 96 0 0 1 95.893334 91.477333L821.333333 106.66666699999996V661.333333a96 96 0 0 1-91.477333 95.893334L725.333333 757.333333zM896 512v-256H682.666667a128 128 0 1 0 0 256h213.333333z m-74.666667-181.333333v106.666666H682.666667a53.333333 53.333333 0 0 1-53.226667-49.834666L629.333333 384a53.333333 53.333333 0 0 1 49.834667-53.226667L682.666667 330.66666699999996h138.666666z"  horiz-adv-x="1024" />
      
      <glyph glyph-name="fuli" unicode="&#58880;" d="M836.345598 638.278287l-28.427446 0c14.415314 24.441669 20.741393 47.75463 18.720364 69.379137-1.677199 18.098193-10.254551 43.982724-41.686425 64.611553-26.059516 17.143449-59.57177 21.348214-96.751554 12.059664-60.292178-15.137769-131.649366-67.180052-178.566932-130.073474C462.687386 717.147566 391.387503 769.190873 331.096349 784.3286410000001c-37.210483 9.348925-70.751391 5.114484-96.807836-12.059664-31.404244-20.62883-39.983643-46.51336-41.659819-64.611553-2.02103-21.624507 4.246721-44.937468 18.720364-69.379137l-28.427446 0c-43.043329 0-78.073146-35.056424-78.073146-78.132498l0-100.636025c0-34.075073 22.474874-64.190975 54.991452-74.30431-3.090385-8.550747-4.708232-17.390066-4.708232-26.347065l0-301.923424c0-43.046399 35.069727-78.117149 78.117149-78.117149l552.85857 0c43.044352 0 78.05882 35.069727 78.05882 78.117149L864.166223 358.859413c0 9.014304-1.558495 17.882276-4.649903 26.376741 32.468482 10.169617 54.890144 40.285518 54.890144 74.274634l0 100.609419C914.405441 603.193211 879.390973 638.278287 836.345598 638.278287M786.10638 34.459069L537.426601 34.459069 537.426601 381.363963l248.680802 0c12.394285 0 22.445198-10.110265 22.445198-22.50455l0-301.923424C808.551578 44.54068099999995 798.500665 34.459069 786.10638 34.459069M568.049039 638.278287c39.549761 45.61899 91.462085 81.468476 133.614114 92.043323 21.896706 5.487991 39.807634 3.985778 52.780087-4.565992 13.781888-9.055237 16.23373-17.129122 16.785292-23.227004 2.192945-22.35924-21.784142-52.504818-33.108049-64.250326L568.049039 638.278287zM858.763167 560.119183l0-100.609419c0-12.394285-10.024308-22.473851-22.417569-22.473851L537.426601 437.035914 537.426601 582.6094069999999l298.918997 0C848.738859 582.6094069999999 858.763167 572.5114209999999 858.763167 560.119183M481.812979 381.363963l0-346.904894L233.24781 34.459069c-12.423961 0-22.477944 10.082636-22.477944 22.476921L210.769866 358.859413c0 12.394285 10.053983 22.50455 22.477944 22.50455L481.812979 381.363963zM248.039701 702.5286140000001c0.547469 6.097882 3.03308 14.172791 16.756639 23.227004 12.882402 8.55177 30.794353 10.127661 52.809763 4.565992 41.917692-10.515494 93.773733-46.36805 133.410476-92.043323L281.088398 638.278287C270.948457 648.548188 245.81401 679.633161 248.039701 702.5286140000001M160.445714 560.119183c0 12.391215 10.053983 22.490224 22.474874 22.490224l298.891368 0 0-145.573493L182.920588 437.035914c-12.420891 0-22.474874 10.079566-22.474874 22.473851L160.445714 560.119183z"  horiz-adv-x="1024" />
      
      <glyph glyph-name="zhuye" unicode="&#59592;" d="M512 703.2c70.4 0 128-57.6 128-128s-57.6-128-128-128c-36 0-68.8 14.4-93.6 40.8-24.8 26.4-36.8 60-34.4 96 4 63.2 56.8 115.2 120 118.4 2.4 0.8 4.8 0.8 8 0.8M512 256c53.6 0 140.8-13.6 216-43.2 64-25.6 104-57.6 104-84v-64.8H192v64.8c0 26.4 40 58.4 104 84 75.2 29.6 162.4 43.2 216 43.2m0 511.2h-11.2c-96-5.6-174.4-83.2-180.8-178.4-7.2-112 80.8-204.8 191.2-204.8 105.6 0 192 86.4 192 192S617.6 767.2 512 767.2zM512 320c-128 0-384-64-384-191.2v-96c0-17.6 14.4-32 32-32h704c17.6 0 32 14.4 32 32V129.60000000000002C896 256 640 320 512 320z"  horiz-adv-x="1024" />
      
      <glyph glyph-name="youhui" unicode="&#59524;" d="M616.853333 805.482667a42.666667 42.666667 0 0 1-60.309333 0.042666L90.453333 339.456a42.752 42.752 0 0 1 0.042667-60.309333l58.858667-58.837334a149.333333 149.333333 0 0 0 198.933333-198.933333l58.837333-58.858667a42.666667 42.666667 0 0 1 60.309334-0.042666L933.546667 428.544a42.752 42.752 0 0 1-0.042667 60.309333l-45.013333 45.013334a149.333333 149.333333 0 0 0-205.290667 205.290666l-66.346667 66.325334zM963.626667 519.018667a85.418667 85.418667 0 0 0 0.042666-120.661334L497.642667-67.69066699999996a85.333333 85.333333 0 0 0-120.661334 0.042667l-83.072 83.072a106.666667 106.666667 0 0 1-150.464 150.464l-83.093333 83.093333a85.418667 85.418667 0 0 0-0.042667 120.661334L526.357333 835.690667a85.333333 85.333333 0 0 0 120.661334-0.042667l93.738666-93.738667a106.666667 106.666667 0 1 1 150.464-150.464l72.426667-72.426666z m-435.050667 29.397333l-181.013333-181.013333a21.333333 21.333333 0 0 1 30.165333-30.165334l181.013333 181.013334a21.333333 21.333333 0 0 1-30.165333 30.165333z m117.653333-128l-170.666666-170.666667a21.333333 21.333333 0 0 1 30.165333-30.165333l170.666667 170.666667a21.333333 21.333333 0 0 1-30.165334 30.165333z"  horiz-adv-x="1024" />
      
      <glyph glyph-name="baoming" unicode="&#59398;" d="M773.9 537.5l120.3 196.6c5.7 8.8 9.1 19.3 9.1 30.5 0 30.9-25.1 56-56 56H522.1c-30.9 0-56-25.1-56-56v-37.2H287.3c-31 0-56-25.1-56-56v-450.1c0-31 25.1-56 56-56h325.1c30.9 0 56 25.1 56 56v37.2h178.8c20.4 0 39.1 11.1 49 28.9 9.9 17.8 9.3 39.6-1.5 56.8L773.9 537.5z m-486.6 134h197.4v-27.4c0-10.3 8.4-18.7 18.7-18.7 10.3 0 18.7 8.4 18.7 18.7v27.4h0.1v93.2h325.1L708 537.2l139.2-222.6H612.4v-0.1H522V559.3c0 10.3-8.4 18.7-18.7 18.7-10.3 0-18.7-8.3-18.7-18.7v-263.5c0-0.3 0.1-0.6 0.1-0.9 0.1-0.9 0.1-1.8 0.3-2.6 0.1-0.6 0.3-1.1 0.5-1.7 0.2-0.6 0.3-1.2 0.5-1.7 0.2-0.6 0.5-1.1 0.8-1.6 0.3-0.5 0.5-1.1 0.9-1.6l1.2-1.5c0.4-0.4 0.7-0.9 1.1-1.3 0.7-0.7 1.5-1.3 2.3-1.9 0.2-0.1 0.3-0.3 0.5-0.4l0.1-0.1h0.1l86-58.9H287.3V671.5z m325.1-427.6l-48.6 33.3h48.6v-33.3zM156.8 722.2c-15.5 0-28-12.5-28-28v-730.9c0-15.5 12.5-28 28-28s28 12.6 28 28V694.2c0 15.5-12.5 28-28 28zM156.8 829.5c-20 0-36.3-16.2-36.3-36.3 0-20 16.3-36.3 36.3-36.3 20 0 36.3 16.3 36.3 36.3 0 20.1-16.3 36.3-36.3 36.3z"  horiz-adv-x="1024" />
      
      <glyph glyph-name="zuji" unicode="&#59177;" d="M375.506959 646.945833a202.81284 202.81284 0 0 1-95.322035 23.526289A224.919439 224.919439 0 0 1 55.468298 439.468298L65.811752 69.94330400000001a204.029717 204.029717 0 0 1 336.669315-148.864625A148.053373 148.053373 0 0 1 429.657987 105.02992500000005a177.055609 177.055609 0 0 0-17.036278 84.167328c0 71.187307 27.988172 159.613705 48.877894 215.792862a195.917203 195.917203 0 0 1-85.992644 241.955718zM370.031012-40.38688100000002a153.123694 153.123694 0 0 0-253.718862 111.749874v13.182835L370.031012 121.05213900000001a175.838732 175.838732 0 0 1 15.210963-40.562568 97.350163 97.350163 0 0 0-15.210963-120.876452z m44.416012 463.224526C390.312296 359.154413 361.918499 267.28019700000004 361.918499 189.40006600000004v-18.050343L114.689647 135.65466400000003 106.37432 440.887987a174.216229 174.216229 0 0 0 174.013417 178.880925 153.326507 153.326507 0 0 0 71.592932-17.644717 144.605555 144.605555 0 0 0 61.857917-179.28655zM743.815076 885.859358a202.81284 202.81284 0 0 1-95.322035-23.526289 195.917203 195.917203 0 0 1-85.992644-241.752905c20.281284-56.179157 48.877894-144.605555 48.877894-215.792862a177.055609 177.055609 0 0 0-17.036278-84.167329 147.647747 147.647747 0 0 1 27.17692-183.951245A202.81284 202.81284 0 0 1 958.188248 285.53335200000004l10.140642 369.322181A224.919439 224.919439 0 0 1 743.815076 885.859358z m-133.653662-247.634477a144.402742 144.402742 0 0 0 62.060729 179.28655A150.892753 150.892753 0 0 0 743.815076 835.156148 174.216229 174.216229 0 0 0 917.62568 656.275223l-8.51814-305.233324-247.83729 35.69506v18.050343c0.811251 77.474505-27.582546 169.754347-51.108836 233.437579zM755.375408 137.88560500000006a153.326507 153.326507 0 0 0-101.40642 37.11475 97.552976 97.552976 0 0 0-15.819402 121.687703 177.461235 177.461235 0 0 1 15.210963 40.562568l254.124489-36.506311v-13.385647a152.515256 152.515256 0 0 0-152.10963-149.473063z"  horiz-adv-x="1024" />
      
      <glyph glyph-name="huiyuan" unicode="&#59030;" d="M724.949333 736a74.666667 74.666667 0 0 0 60.373334-30.741333l137.514666-189.077334a74.666667 74.666667 0 0 0-5.013333-94.016L567.36 34.837333a74.666667 74.666667 0 0 0-110.72 0L106.176 422.165333a74.666667 74.666667 0 0 0-5.013333 94.016l137.514666 189.077334a74.666667 74.666667 0 0 0 60.373334 30.741333h425.898666z m0-64H299.050667a10.666667 10.666667 0 0 1-8.618667-4.394667l-137.514667-189.077333a10.666667 10.666667 0 0 1 0.725334-13.44L504.106667 77.802667a10.666667 10.666667 0 0 1 15.829333 0l350.442667 387.328a10.666667 10.666667 0 0 1 0.725333 13.44l-137.514667 189.056a10.666667 10.666667 0 0 1-8.618666 4.394666z m-63.893333-182.229333a32 32 0 0 0 47.445333-42.944l-172.778666-190.954667a32 32 0 0 0-47.445334 0l-172.202666 190.314667a32 32 0 0 0 47.445333 42.944L512 325.034667l149.056 164.736z"  horiz-adv-x="1024" />
      
      <glyph glyph-name="kecheng" unicode="&#58912;" d="M532.7 11.399999999999977h-36.2c-3.8 0-7.6 1.1-10.8 3.2l-35.5 22.8c-88.3 56.7-256.5 55.8-384.4 36-13.4-2.1-26.8 2.2-36.6 11.6-9.9 9.6-14.7 22.9-13 36.6l68.1 567c2.1 17.7 17.1 31 34.9 31h38.3c11 0 20-9 20-20s-9-20-20-20h-34.1L55.9 116.89999999999998c-0.2-1.6 0.6-2.6 1.1-3.1 0.8-0.7 1.7-1 2.7-0.9 72.4 11.2 148.1 15.2 213.1 11.3 85-5.1 152-23 199-53.2l30.5-19.6h24.5l30.5 19.6c47.2 30.3 113.9 48.6 198.2 54.4 65.6 4.5 141 1 212.4-9.9 0.4-0.1 1.5-0.2 2.6 0.9 0.5 0.5 1.3 1.5 1.1 3.1l-66 560.1h-34c-11 0-20 9-20 20s9 20 20 20h38.3c17.8 0 32.9-13.4 35-31.1l66.5-564.4c1.6-13.7-3.1-27-13-36.6-9.8-9.4-23.1-13.7-36.5-11.7-68.6 10.4-140.9 13.8-203.7 9.5-76.4-5.3-138.4-21.9-179.3-48.2l-35.5-22.8c-3.1-1.8-6.9-2.9-10.7-2.9zM486.4 201.29999999999995c-4.1 0-8.1 1.2-11.6 3.7l-27.7 19.6c-39.2 27.8-85.9 41.3-142.6 41.3-27.7 0-58.8-3.2-95-9.8-2.4-0.4-4.8-0.6-7.2-0.6-11 0-21.5 4.6-28.7 12.6-7.1 7.8-10.4 17.8-9.5 28.2L206 750.6c0.8 8.8 7.2 16 15.9 17.8 41.8 8.6 76.4 15.2 109.5 15.2 49.2 0 90.8-14.5 138.9-48.6l27.7-19.6c5.3-3.7 8.4-9.8 8.4-16.3v-477.7c0-7.5-4.2-14.3-10.8-17.8-2.9-1.5-6-2.3-9.2-2.3zM304.6 305.9c63.5 0 116.5-15 161.9-46V688.7l-19.3 13.6c-41.4 29.3-74.9 41.3-115.8 41.3-25.7 0-53.8-4.8-86.9-11.4l-40.2-436.3c37.8 6.7 70.6 10 100.3 10zM514 201.29999999999995c-6.3 0-12.4 2.9-16.3 8.4-6.4 9-4.3 21.5 4.8 27.9l27.7 19.6c85.9 60.9 187.1 52.8 266.1 38.6L756 732.2c-84.4 17-131.6 20.6-202.7-29.8l-27.7-19.6c-9-6.4-21.5-4.3-27.9 4.8-6.4 9-4.3 21.5 4.8 27.9l27.7 19.6c88.3 62.6 148.9 54 248.4 33.4 8.6-1.8 15.1-9 15.9-17.8l41.9-454.4c1.1-11.5-3.3-22.7-11.9-30.6-8.9-8.2-21.4-11.7-33.5-9.5-76 13.8-163.7 20.9-237.7-31.5L525.6 205c-3.5-2.5-7.6-3.7-11.6-3.7zM562.5 533c-6.3 0-12.4 2.9-16.3 8.4-6.4 9-4.3 21.5 4.8 27.9l24.7 17.5c55.1 39.1 99 32.2 145.5 24.9 6.4-1 13-2 19.6-3 10.9-1.5 18.6-11.6 17.1-22.5s-11.6-18.6-22.5-17.1c-7 1-13.8 2-20.4 3.1-43.1 6.8-74.3 11.7-116.2-18L574 536.7c-3.5-2.5-7.5-3.7-11.5-3.7zM562.5 423.9c-6.3 0-12.4 2.9-16.3 8.4-6.4 9-4.3 21.5 4.8 27.9l24.7 17.5c54.9 38.9 108 30.5 154.8 23.1 6.8-1.1 13.8-2.2 20.6-3.1 10.9-1.5 18.6-11.6 17.1-22.5s-11.6-18.6-22.5-17.1c-7.2 1-14.4 2.1-21.4 3.2-44.9 7.1-83.7 13.3-125.4-16.3L574 427.6c-3.5-2.5-7.5-3.7-11.5-3.7zM436.3 533.5c-4 0-8 1.2-11.5 3.7l-24.2 17.2c-41 29.1-71.6 24.3-113.9 17.6-6.4-1-13.1-2.1-20-3-10.9-1.5-21 6.1-22.5 17.1-1.5 10.9 6.1 21 17.1 22.5 6.5 0.9 13 1.9 19.3 2.9 45.7 7.2 88.9 14 143.2-24.5l24.2-17.2c9-6.4 11.1-18.9 4.8-27.9-4-5.5-10.2-8.4-16.5-8.4zM436.3 426.2c-4 0-8 1.2-11.5 3.7l-24.2 17.2c-41.6 29.5-80.9 23.4-126.5 16.4-6.2-1-12.6-1.9-18.9-2.8-10.9-1.5-21 6.1-22.5 17.1-1.5 10.9 6.1 21 17.1 22.5 6.1 0.8 12.3 1.8 18.3 2.7 47.3 7.3 100.9 15.5 155.7-23.3l24.2-17.2c9-6.4 11.1-18.9 4.8-27.9-4-5.4-10.2-8.4-16.5-8.4z"  horiz-adv-x="1024" />
      
      <glyph glyph-name="qianbi" unicode="&#58897;" d="M364.9408 102.39999999999998H140.8a12.8 12.8 0 0 0-12.8 12.8V339.34079999999994c0 3.392 1.344 6.656 3.7504 9.0496l504.32 504.3328a60.3776 60.3776 0 0 0 85.3376 0l156.9024-156.9024a60.416 60.416 0 0 0 0-85.3376L642.9696 375.1296l-18.0992 18.0992 235.3536 235.3536a34.7776 34.7776 0 0 1 0 49.1392L703.3216 834.624a34.7904 34.7904 0 0 1-49.1392 0L153.6 334.0416V128h206.0416l197.9776 197.9776 18.0992-18.0992-201.728-201.728a12.7616 12.7616 0 0 0-9.0496-3.7504zM602.4576 370.81600000000003l18.0992-18.0992-22.4-22.4128-18.112 18.0992zM364.9408 102.39999999999998a12.7616 12.7616 0 0 0-9.0496 3.7504L131.7504 330.2912a12.7872 12.7872 0 1 0 18.0992 18.0992l224.1408-224.1408A12.7872 12.7872 0 0 0 364.9408 102.39999999999998zM813.2352 550.6944a12.7616 12.7616 0 0 0-9.0496 3.7504L580.0448 778.5856a12.7872 12.7872 0 1 0 18.0992 18.0992L822.2848 572.544a12.7872 12.7872 0 0 0-9.0496-21.8496zM768.4096 505.8688a12.7616 12.7616 0 0 0-9.0496 3.7504L535.2064 733.76a12.7872 12.7872 0 1 0 18.0992 18.0992l224.1408-224.1408a12.7872 12.7872 0 0 0-9.0368-21.8496zM149.8624 236.32640000000004l112.0768-112.0768-18.0992-18.0992-112.0768 112.0768zM333.4784 415.6416l18.0992-18.0992-22.4-22.4128-18.112 18.0992zM297.7024 164.3392l-107.7632 107.7632 98.7136 98.7136 18.0992-18.0992-80.6144-80.6144 71.5648-71.5648 385.3568 385.3696-71.552 71.552-237.5168-237.504-18.0992 18.0992 255.616 255.6032 107.7504-107.7504z"  horiz-adv-x="1024" />
      
      <glyph glyph-name="feidian" unicode="&#59250;" d="M807.152941 673.129412c-78.305882 78.305882-180.705882 120.470588-295.152941 120.470588s-216.847059-42.164706-295.152941-120.470588C132.517647 594.823529 90.352941 486.4 90.352941 371.952941s42.164706-216.847059 126.494118-295.152941c78.305882-78.305882 186.729412-126.494118 295.152941-126.494118s216.847059 42.164706 295.152941 126.494118c78.305882 78.305882 126.494118 186.729412 126.494118 295.152941s-42.164706 222.870588-126.494118 301.176471z m-252.988235-469.835294c0-12.047059-6.023529-18.070588-12.047059-30.117647-6.023529-6.023529-18.070588-12.047059-30.117647-12.047059s-18.070588 6.023529-30.117647 12.047059c-6.023529 6.023529-12.047059 18.070588-12.047059 30.117647V335.81176500000004c-24.094118 0-42.164706 18.070588-42.164706 42.164706 0 24.094118 18.070588 48.188235 48.188236 48.188235h30.117647c24.094118 0 48.188235-24.094118 48.188235-48.188235v-174.682353z m-6.02353 289.129411c-6.023529-6.023529-24.094118-12.047059-36.141176-12.047058s-30.117647 6.023529-36.141176 12.047058-18.070588 24.094118-18.070589 36.141177 6.023529 30.117647 18.070589 36.141176 24.094118 18.070588 36.141176 18.070589 30.117647-6.023529 36.141176-18.070589c12.047059-12.047059 18.070588-24.094118 18.070589-36.141176s-6.023529-24.094118-18.070589-36.141177z"  horiz-adv-x="1024" />
      
      <glyph glyph-name="xiajiantou" unicode="&#58890;" d="M573.056 144l308.8 404.608A76.8 76.8 0 0 1 820.736 672H203.232a76.8 76.8 0 0 1-61.056-123.392L450.976 144a76.8 76.8 0 0 1 122.08 0z"  horiz-adv-x="1024" />
      
      <glyph glyph-name="xiajiantou-copy" unicode="&#60259;" d="M533.7404621 298.54220869000005l109.95569151 144.07044178A27.34649325 27.34649325 0 0 1 621.93290276 486.54934957H402.0557029a27.34649325 27.34649325 0 0 1-21.74046211-43.9366991L490.27093223 298.54220869000005a27.34649325 27.34649325 0 0 1 43.46952987 0z"  horiz-adv-x="1024" />
      
      <glyph glyph-name="guanzhu" unicode="&#58929;" d="M252.859985 308.63145199999997l305.400618 0 0-67.970044-305.400618 0 0 67.970044ZM717.89944 282.230152c-135.782499 0-245.853407-131.108037-245.853407-131.108037s110.070908-131.110083 245.853407-131.110083c135.77943 0 245.848291 131.110083 245.848291 131.110083S853.67887 282.230152 717.89944 282.230152zM717.632357 51.80820200000005c-53.18634 0-96.30744 42.979884-96.30744 95.997378 0 53.014424 43.120077 95.994308 96.30744 95.994308 53.188386 0 96.306416-42.979884 96.306416-95.994308C813.938774 94.79013199999997 770.820744 51.80820200000005 717.632357 51.80820200000005zM717.632357 205.13630999999998c-3.621481 0-7.136537-0.424672-10.573823-1.064238 11.449773-3.001357 19.938098-13.298887 19.938098-25.65531 0-14.70491-11.960403-26.627451-26.716478-26.627451-14.749936 0-26.710338 11.922541-26.710338 26.627451 0 2.496867 0.454348 4.864798 1.099031 7.157004-8.948813-10.110265-14.553461-23.231097-14.553461-37.770232 0-31.66007 25.7515-57.328683 57.515948-57.328683 31.764448 0 57.517995 25.668613 57.517995 57.328683C775.150352 179.46462699999995 749.396805 205.13630999999998 717.632357 205.13630999999998zM188.587146 59.376575c-31.238468 0-56.645115 25.377994-56.645115 56.641021L131.942031 705.0827859999999c0 31.238468 25.377994 56.676837 56.645115 56.676837l521.210779 0c31.238468 0 56.645115-25.406646 56.645115-56.676837l0-396.451334 67.938322 0L834.381361 705.0827859999999c0 68.708871-55.845912 124.615159-124.583436 124.615159l-521.210779 0c-68.677149 0-124.583436-55.850006-124.583436-124.615159l0-589.06519c0-68.704778 55.850006-124.611066 124.583436-124.611066l369.673457 0 0 67.970044L188.587146 59.376575zM252.859985 580.47172l392.697847 0 0-67.941392-392.697847 0 0 67.941392ZM252.859985 444.534701l392.697847 0 0-67.965951-392.697847 0 0 67.965951Z"  horiz-adv-x="1024" />
      
      <glyph glyph-name="android" unicode="&#58985;" d="M615.878882 718.505493l42.303478 61.521169c1.811252 2.619664 1.146103 6.252401-1.473561 8.063653l-1.054005 0.726547c-2.619664 1.821485-6.231935 1.146103-8.043187-1.473561l-43.521213-63.291488c-28.427446 12.361539-60.139705 19.268856-93.601818 19.268856-31.753191 0-61.950957-6.221702-89.232301-17.426905l-41.587164 60.477396c-1.801019 2.619664-5.423523 3.284813-8.043187 1.473561l-1.054005-0.726547c-2.619664-1.811252-3.284813-5.443989-1.483794-8.073886l40.215934-58.461483c-63.23009-30.300097-108.664885-88.075964-117.915573-156.299789l438.20018 0C720.552873 630.982114 676.919097 687.703977 615.878882 718.505493zM418.217057 630.378363c-12.054547 0-21.837354 9.813506-21.837354 21.908986 0 12.095479 9.782807 21.898753 21.837354 21.898753 12.06478 0 21.837354-9.803273 21.837354-21.898753C440.054411 640.19187 430.281837 630.378363 418.217057 630.378363zM606.710059 630.378363c-12.054547 0-21.837354 9.813506-21.837354 21.908986 0 12.095479 9.782807 21.898753 21.837354 21.898753 12.06478 0 21.837354-9.803273 21.837354-21.898753C628.547413 640.19187 618.774839 630.378363 606.710059 630.378363zM260.904195 476.493577l0-179.446975c0-30.760584-19.596314-55.933917-43.562145-55.933917l-9.680477 0c-23.955598 0-43.562145 25.173332-43.562145 55.933917l0 179.446975c0 30.760584 19.606547 55.923684 43.562145 55.923684l9.680477 0C241.307881 532.417261 260.904195 507.254162 260.904195 476.493577zM859.896478 475.429339l0-179.446975c0-30.770817-19.596314-55.933917-43.562145-55.933917l-9.680477 0c-23.955598 0-43.562145 25.163099-43.562145 55.933917l0 179.446975c0 30.760584 19.606547 55.923684 43.562145 55.923684l9.680477 0C840.300164 531.353023 859.896478 506.189923 859.896478 475.429339zM732.934878 535.1699550000001l0-354.074178c0-24.579815-20.046568-44.687782-44.554752-44.687782l-36.746926 0 0-102.320387c0-30.760584-19.606547-55.923684-43.562145-55.923684l-9.680477 0c-23.955598 0-43.562145 25.163099-43.562145 55.923684l0 102.320387-81.864496 0 0-101.143585c0-30.760584-19.596314-55.933917-43.562145-55.933917l-9.680477 0c-23.955598 0-43.562145 25.173332-43.562145 55.933917l0 101.143585-40.062438 0c-24.508183 0-44.554752 20.107967-44.554752 44.687782l0 354.074178L732.934878 535.1699550000001z"  horiz-adv-x="1024" />
      
      <glyph glyph-name="sousuo" unicode="&#58961;" d="M966.4-28.799999999999955l-230.4 227.2c60.8 67.2 96 156.8 96 256 0 217.6-176 390.4-390.4 390.4-217.6 0-390.4-176-390.4-390.4 0-217.6 176-390.4 390.4-390.4 99.2 0 188.8 35.2 256 96l230.4-227.2c9.6-9.6 28.8-9.6 38.4 0C979.2-54.39999999999998 979.2-38.39999999999998 966.4-28.799999999999955zM102.4 454.4c0 185.6 150.4 339.2 339.2 339.2s339.2-150.4 339.2-339.2c0-89.6-35.2-172.8-92.8-233.6-3.2 0-3.2-3.2-6.4-3.2-3.2-3.2-3.2-3.2-3.2-6.4-60.8-57.6-144-92.8-233.6-92.8C256 115.20000000000005 102.4 268.79999999999995 102.4 454.4z"  horiz-adv-x="1024" />
      
      <glyph glyph-name="backtop" unicode="&#58909;" d="M1009.762845 839.110543L14.237155 839.110543C6.386724 839.110543 0.01536 845.453463 0.01536 853.332338L0.01536 881.775929C0.01536 889.62636 6.386724 895.997724 14.237155 895.997724L1009.762845 895.997724C1017.613276 895.997724 1023.98464 889.62636 1023.98464 881.775929L1023.98464 853.332338C1023.98464 845.453463 1017.613276 839.110543 1009.762845 839.110543ZM473.800257 698.912082C476.67306 701.784884 480.00096 703.832823 483.556409 705.226559L483.556409 711.114383C483.556409 718.964813 489.927773 725.336178 497.778205 725.336178L526.221795 725.336178C534.072227 725.336178 540.443591 718.964813 540.443591 711.114383L540.443591 705.226559C543.99904 703.832823 547.32694 701.784884 550.199743 698.912082L997.560544 251.55128000000002C1008.653544 240.42983600000002 1008.653544 222.42504299999996 997.560544 211.30359899999996 986.4391 200.210598 968.434307 200.210598 957.341307 211.30359899999996L540.443591 628.201314 540.443591-113.74976100000003C540.443591-121.60019199999999 534.072227-127.97155699999996 526.221795-127.97155699999996L497.778205-127.97155699999996C489.927773-127.97155699999996 483.556409-121.60019199999999 483.556409-113.74976100000003L483.556409 628.201314 66.658693 211.30359899999996C55.565693 200.210598 37.532456 200.210598 26.439456 211.30359899999996 15.318011 222.42504299999996 15.318011 240.42983600000002 26.439456 251.55128000000002L473.800257 698.912082Z"  horiz-adv-x="1024" />
      
      <glyph glyph-name="lingdang" unicode="&#59584;" d="M512-64c49.6 0 88 38.4 88 88H424c0-49.6 38.4-88 88-88z m288.8 286.4V451.2c0 137.6-97.6 252.8-224.8 283.2v28.8c0 32-17.6 60.8-48 67.2-44 10.4-80-23.2-80-66.4v-30.4C320.8 704 223.2 588.8 223.2 451.2v-228.8L136 132.79999999999995v-44.8h752v44.8l-87.2 89.6z"  horiz-adv-x="1024" />
      
      <glyph glyph-name="caogao" unicode="&#58987;" d="M1023.99808 313.02317300000004a47.99991 47.99991 0 0 1-47.99991 47.99991h-119.999775V847.99817a47.99991 47.99991 0 0 1-47.99991 47.99991H411.007229l-0.319999-0.064a47.615911 47.615911 0 0 1-34.239936-14.015974L182.207658 687.678471a47.487911 47.487911 0 0 1-13.887974-34.751935c0-0.511999-0.256-0.959998-0.255999-1.407998 0-1.471997 0.703999-2.751995 0.831998-4.223992-0.192-1.535997-0.895998-2.815995-0.895998-4.287992v-281.983471H47.99991a47.99991 47.99991 0 0 1-47.99991-47.99991c0-0.703999 0.383999-1.343997 0.383999-1.983996 0-0.703999-0.383999-1.343997-0.383999-2.047996v-388.991271c0-26.49595 21.50396-47.99991 47.99991-47.99991h927.99826a47.99991 47.99991 0 0 1 47.99991 47.99991v369.023308c0 4.223992-1.343997 8.063985-2.431995 12.031978 1.087998 3.903993 2.431995 7.679986 2.431995 11.967977z m-927.99826-47.99991h210.751605c31.359941-82.879845 110.847792-142.015734 204.735616-142.015734s173.311675 59.135889 204.735616 142.015734H927.99826V-32.00018h-831.99844v297.023443z m334.975372 434.431186H329.727382L430.271193 799.99826h0.767999v-100.543811z m-166.975687-95.99982h214.015599a47.551911 47.551911 0 0 1 45.119915 33.663936 47.679911 47.679911 0 0 1 3.903993 18.879965V799.99826h233.023563v-438.975177H632.126815c1.023998-6.207988 3.007994-12.031977 3.007994-18.495965a123.583768 123.583768 0 0 0-247.039537 0c0 6.527988 1.983996 12.287977 2.943995 18.495965H263.999505V603.4546290000001z"  horiz-adv-x="1024" />
      
      <glyph glyph-name="writecode" unicode="&#58901;" d="M321.828571 669.257143c-14.628571 14.628571-36.571429 14.628571-51.2 0L7.314286 413.257143c-14.628571-14.628571-14.628571-36.571429 0-51.2l256-256c14.628571-14.628571 36.571429-14.628571 51.2 0 14.628571 14.628571 14.628571 36.571429 0 51.2L87.771429 384l234.057142 234.057143c7.314286 14.628571 7.314286 36.571429 0 51.2z m263.314286 0c-14.628571 0-36.571429-7.314286-43.885714-29.257143l-131.657143-497.371429c-7.314286-21.942857 7.314286-36.571429 29.257143-43.885714s36.571429 7.314286 43.885714 29.257143l131.657143 497.371429c7.314286 14.628571-7.314286 36.571429-29.257143 43.885714z m431.542857-256l-256 256c-14.628571 14.628571-36.571429 14.628571-51.2 0-14.628571-14.628571-14.628571-36.571429 0-51.2L936.228571 384l-234.057142-234.057143c-14.628571-14.628571-14.628571-36.571429 0-51.2 14.628571-14.628571 36.571429-14.628571 51.2 0l256 256c14.628571 14.628571 14.628571 43.885714 7.314285 58.514286z"  horiz-adv-x="1027" />
      
      <glyph glyph-name="quanzi" unicode="&#58910;" d="M781.69183326 687.41876197H242.36749291c-9.3092649 0-17.22930884-3.29754663-23.84417772-9.88769507-6.57531762-6.59509253-9.87780761-14.52502465-9.87780761-23.79473901v-370.83801222c0-9.37847924 3.30743408-17.30841065 9.87780761-23.90350389 6.61486816-6.59014916 14.53491211-9.88769508 23.84417772-9.88769508h101.13629151v-105.07159448l146.9311521 105.07159448h291.27667236c9.31420898 0 17.23425293 3.29754663 23.85900855 9.88769508 6.57037354 6.59509253 9.87780761 14.52502465 9.87780763 23.8985598V653.73632789c0 9.27465844-3.31237817 17.20458984-9.87780763 23.79968309-6.62475562 6.59014916-14.54479957 9.88769508-23.85900855 9.88769508h-0.01977562zM242.34771729 754.78857422h539.32434106c27.89318824 0 51.74725342-9.78881836 71.50286865-29.56420922 19.74572778-19.77539086 29.61364722-43.57507324 29.61364722-71.48803711v-370.83801222c0-27.91790796-9.86792016-51.81646704-29.61364722-71.49298119-19.75561523-19.77539086-43.60968041-29.66308594-71.50286865-29.66308594h-269.68688989L276.049927 13.211425780000013v168.52587867h-33.70220971c-27.91296386 0-51.74725342 9.88769508-71.50286866 29.66308594C151.08923339 231.08184789999996 141.21142578 254.9853518 141.21142578 282.89831567V653.73632789C141.21142578 681.65423584 151.08923339 705.44897484 170.84484863 725.224365 190.60046386 744.99975586 214.43475342 754.78857422 242.34771729 754.78857422z"  horiz-adv-x="1024" />
      
      <glyph glyph-name="rengongzhineng" unicode="&#60258;" d="M554.666667 644.266667V554.666667h341.333333v-426.666667H170.666667V554.666667h341.333333V644.266667c-25.6 8.533333-42.666667 34.133333-42.666667 59.733333 0 34.133333 29.866667 64 64 64s64-29.866667 64-64c0-29.866667-17.066667-51.2-42.666666-59.733333zM512 512H213.333333v-341.333333h640V512h-341.333333z m-384-85.333333v-213.333334H85.333333v213.333334h42.666667z m853.333333 0v-213.333334h-42.666666v213.333334h42.666666zM384 298.66666699999996c-25.6 0-42.666667 17.066667-42.666667 42.666666s17.066667 42.666667 42.666667 42.666667 42.666667-17.066667 42.666667-42.666667-17.066667-42.666667-42.666667-42.666666z m298.666667 0c-25.6 0-42.666667 17.066667-42.666667 42.666666s17.066667 42.666667 42.666667 42.666667 42.666667-17.066667 42.666666-42.666667-17.066667-42.666667-42.666666-42.666666z"  horiz-adv-x="1024" />
      
      <glyph glyph-name="houduan" unicode="&#58882;" d="M554 46.426000000000045c0-23.365-18.635-42.307-42-42.307s-42 18.941-42 42.307V233.28099999999995c0 23.365 18.635 42.307 42 42.307v7.051c23.365 0 42-25.993 42-49.358v-186.855zM893 7.5c0-17.397-14.103-31.5-31.5-31.5h-700c-17.397 0-31.5 14.103-31.5 31.5s14.103 31.5 31.5 31.5h700c17.397 0 31.5-14.103 31.5-31.5zM926 721.5740000000001C926 760.516 894.686 791 855.744 791H168.256C129.314 791 98 760.516 98 721.5740000000001V363h828V721.5740000000001zM98 265.01199999999994C98 226.06899999999996 129.314 194 168.256 194h687.488C894.686 194 926 226.06899999999996 926 265.01199999999994V300H98v-34.988z"  horiz-adv-x="1024" />
      
      <glyph glyph-name="qianduan" unicode="&#58885;" d="M66.12 708.7v-651.65c0-14.44 11.7-26.14 26.14-26.14h841.71c14.44 0 26.14 11.7 26.14 26.14V708.7c0 14.44-11.7 26.14-26.14 26.14H92.26c-14.44 0.01-26.14-11.7-26.14-26.14z m829.99-37.85v-96.11H130.12v96.11h765.99zM130.12 94.90999999999997V510.74h765.99v-415.83H130.12zM329.77 419.41L210.14 299.78999999999996l119.63-119.63a9.482 9.482 0 0 1 13.42 0L375.03 212a9.482 9.482 0 0 1 0 13.42l-74.37 74.37 74.37 74.37a9.482 9.482 0 0 1 0 13.42l-31.84 31.84c-3.71 3.7-9.72 3.7-13.42-0.01zM647.87 374.15999999999997l74.37-74.37-74.37-74.37a9.482 9.482 0 0 1 0-13.42l31.84-31.84a9.482 9.482 0 0 1 13.42 0l119.63 119.63-119.64 119.62a9.482 9.482 0 0 1-13.42 0l-31.84-31.84c-3.7-3.7-3.7-9.71 0.01-13.41zM434.61 178.38l41.3-17.92c4.81-2.09 10.4 0.12 12.48 4.93l101.85 234.74c2.09 4.81-0.12 10.4-4.93 12.48l-41.3 17.92c-4.81 2.09-10.4-0.12-12.48-4.93L429.68 190.87c-2.09-4.81 0.12-10.4 4.93-12.49z"  horiz-adv-x="1024" />
      
      <glyph glyph-name="gongju" unicode="&#58891;" d="M496.64 307.20000000000005l-15.146667-15.146667 4.266667-4.266666-235.306667-235.093334h-30.08l-36.266666 36.266667v30.293333l250.24 250.24 62.293333-62.293333zM853.333333 625.9200000000001l-106.666666-158.72-19.413334-9.173333-55.466666 4.693333-16.853334-6.186667-78.933333-78.293333-4.266667 4.266667-15.146666-15.146667-62.08 62.293333 93.226666 93.226667 6.186667 17.066667-4.906667 55.253333 9.386667 19.626667 158.72 106.666666 21.333333-21.333333-91.306666-90.026667v-30.293333L711.253333 554.666667h30.08L832 647.04zM576.213333 378.24l-90.453333-90.453333-4.266667 4.266666 15.146667 15.146667-62.293333 62.293333-129.066667 128.853334-59.306667 29.226666-72.746666 133.12 30.08 30.08 133.12-72.746666 29.226666-59.306667 129.066667-129.066667 62.08-62.293333 15.146667 15.146667 4.266666-4.266667zM822.186667 132.26666699999998v-29.653334L761.386667 42.66666699999996H731.733333L485.76 287.78666699999997 576 378.24z"  horiz-adv-x="1024" />
      
      <glyph glyph-name="zhinanzhen" unicode="&#58911;" d="M512 896a512 512 0 1 1 512-512A512 512 0 0 1 512 896z m128-502.613A128 128 0 0 0 502.613 256l-216.746-98.133L384 374.61300000000006A128 128 0 0 0 521.387 512l216.746 98.133z"  horiz-adv-x="1024" />
      
      <glyph glyph-name="yuedu" unicode="&#59408;" d="M900.829867 752.418133a34.133333 34.133333 0 0 0 43.690666-52.394666l-4.437333-3.6864a173.960533 173.960533 0 0 1-24.951467-27.6992C897.706667 644.5397330000001 887.466667 617.7450670000001 887.466667 588.8c0-28.945067 10.24-55.739733 27.648-79.854933 6.263467-8.635733 12.970667-16.247467 19.626666-22.715734l2.9696-2.833066c1.792-1.655467 3.191467-2.8672 4.096-3.584l0.5632-0.4608a34.133333 34.133333 0 0 0-41.540266-54.1696c-10.973867 8.3968-26.0608 23.074133-41.028267 43.776C834.56 503.876267 819.2 544.085333 819.2 588.8c0 44.714667 15.36 84.923733 40.618667 119.842133 14.9504 20.6848 30.037333 35.362133 41.0112 43.776zM75.3152 336.4864a34.133333 34.133333 0 0 0 47.854933 6.331733c10.9568-8.413867 26.0608-23.0912 41.028267-43.776C189.44 264.123733 204.8 223.914667 204.8 179.20000000000005c0-44.714667-15.36-84.923733-40.618667-119.842133-14.9504-20.701867-30.037333-35.3792-41.0112-43.776a34.133333 34.133333 0 0 0-43.690666 52.3776l4.437333 3.703466c1.365333 1.194667 3.191467 2.850133 5.358933 4.949334 6.656 6.485333 13.346133 14.097067 19.592534 22.7328C126.293333 123.46026700000004 136.533333 150.25493300000005 136.533333 179.20000000000005c0 28.945067-10.24 55.739733-27.648 79.837867a173.960533 173.960533 0 0 1-19.626666 22.715733l-4.232534 3.9936a77.858133 77.858133 0 0 1-2.816 2.440533l-0.580266 0.443734a34.133333 34.133333 0 0 0-6.314667 47.854933zM921.6 759.466667a34.133333 34.133333 0 0 0 2.56-68.181334L921.6 691.2H238.933333a102.4 102.4 0 0 1-3.84-204.731733L238.933333 486.4h682.666667a34.133333 34.133333 0 0 0 2.56-68.181333L921.6 418.133333H238.933333C144.674133 418.133333 68.266667 494.5408 68.266667 588.8c0 92.672 73.847467 168.072533 165.888 170.5984L238.933333 759.466667h682.666667zM785.066667 349.866667c94.2592 0 170.666667-76.407467 170.666666-170.666667 0-92.672-73.847467-168.072533-165.888-170.5984L785.066667 8.53333299999997H102.4a34.133333 34.133333 0 0 0-2.56 68.164267L102.4 76.79999999999995h682.666667a102.4 102.4 0 0 1 3.84 204.731733L785.066667 281.6H102.4a34.133333 34.133333 0 0 0-2.56 68.164267L102.4 349.866667h682.666667zM375.466667 640v-221.866667a34.133333 34.133333 0 1 0-68.266667 0V640h68.266667z"  horiz-adv-x="1024" />
      
      <glyph glyph-name="daimarensheng" unicode="&#59793;" d="M960 800H64c-35.3 0-64-28.6-64-64v-704c0-35.3 28.7-64 64-64h896c35.3 0 64 28.7 64 64V736c0 35.4-28.7 64-64 64z m-80-128c0-8.8-3.6-16.8-9.4-22.6-5.8-5.8-13.8-9.4-22.6-9.4-17.7 0-32 14.3-32 32 0 8.8 3.6 16.8 9.4 22.6 5.8 5.8 13.8 9.4 22.6 9.4s16.8-3.6 22.6-9.4c5.8-5.8 9.4-13.8 9.4-22.6z m-128 0c0-8.8-3.6-16.8-9.4-22.6-5.8-5.8-13.8-9.4-22.6-9.4-17.7 0-32 14.3-32 32 0 8.8 3.6 16.8 9.4 22.6 5.8 5.8 13.8 9.4 22.6 9.4s16.8-3.6 22.6-9.4c5.8-5.8 9.4-13.8 9.4-22.6z m-182.6 22.6c5.8 5.8 13.8 9.4 22.6 9.4s16.8-3.6 22.6-9.4c5.8-5.8 9.4-13.8 9.4-22.6s-3.6-16.8-9.4-22.6c-5.8-5.8-13.8-9.4-22.6-9.4-17.7 0-32 14.3-32 32 0 8.8 3.6 16.8 9.4 22.6zM960 48c0-8.8-7.2-16-16-16H80c-8.8 0-16 7.2-16 16V536c0 4.4 3.6 8 8 8h880c4.4 0 8-3.6 8-8v-488zM439.8 128.5c-15.6 8.3-21.5 27.7-13.2 43.3l114.4 215c8.3 15.6 27.7 21.5 43.3 13.2 15.6-8.3 21.5-27.7 13.2-43.3L483 141.70000000000005c-8.3-15.6-27.6-21.5-43.2-13.2zM310.5 188.20000000000005l-61.2 61.2c-12.5 12.5-12.5 32.8 0 45.3l61.2 61.2c1.6 1.6 4.1 1.6 5.7 0l39.6-39.6c1.6-1.6 1.6-4.1 0-5.7l-27.2-27.2c-6.2-6.2-6.2-16.4 0-22.6l27.2-27.2c1.6-1.6 1.6-4.1 0-5.7l-39.6-39.6c-1.6-1.7-4.1-1.7-5.7-0.1zM707.8 188.20000000000005l-39.6 39.6c-1.6 1.6-1.6 4.1 0 5.7l27.2 27.2c6.2 6.2 6.2 16.4 0 22.6l-27.2 27.2c-1.6 1.6-1.6 4.1 0 5.7l39.6 39.6c1.6 1.6 4.1 1.6 5.7 0l61.2-61.2c12.5-12.5 12.5-32.8 0-45.3l-61.2-61.2c-1.6-1.5-4.1-1.5-5.7 0.1z"  horiz-adv-x="1024" />
      
      <glyph glyph-name="biji" unicode="&#59071;" d="M746.666667 832a170.666667 170.666667 0 0 0 170.666666-170.666667v-554.666666a170.666667 170.666667 0 0 0-170.666666-170.666667H298.666667a170.666667 170.666667 0 0 0-170.666667 170.666667V661.333333a170.666667 170.666667 0 0 0 170.666667 170.666667h448z m0-74.666667H298.666667a96 96 0 0 1-95.893334-91.477333L202.666667 661.333333v-554.666666a96 96 0 0 1 91.477333-95.893334L298.666667 10.666667h448a96 96 0 0 1 95.893333 91.477333L842.666667 106.666667V661.333333a96 96 0 0 1-91.477334 95.893334L746.666667 757.333333zM224 570.666667a37.333333 37.333333 0 0 0 3.072-74.538667l-3.072-0.128H106.666667a37.333333 37.333333 0 0 0-3.072 74.538667L106.666667 570.666667h117.333333zM224 272a37.333333 37.333333 0 0 0 3.072-74.538667l-3.072-0.128H106.666667a37.333333 37.333333 0 0 0-3.072 74.538667L106.666667 272h117.333333zM693.333333 549.333333a37.333333 37.333333 0 0 0 37.205334-34.261333l0.128-3.072v-256a37.333333 37.333333 0 0 0-74.538667-3.072L656 256V512c0 20.608 16.725333 37.333333 37.333333 37.333333z"  horiz-adv-x="1024" />
      
      <glyph glyph-name="ios" unicode="&#58918;" d="M849.124 191.10400000000004c-1.04-3.158-17.3-59.873-57.25-118.191-34.578-50.306-70.333-101.019-126.803-101.91-55.533-0.975-73.303 33.136-136.707 33.136-63.324 0-83.23-32.245-135.713-34.111-54.255-2.221-96.004 54.951-130.712 105.011-70.935 102.55-125.553 290.6-52.301 416.626 36.04 63.055 100.82 103.136 171.364 104.231 53.161 1.005 103.74-36.012 136.029-36.012 33.171 0 94.357 44.791 158.906 38.09 27.026-1.152 102.622-11.299 151.328-81.892-3.832-2.607-90.452-53.724-89.487-157.76 1.302-125.597 110.174-166.79 111.346-167.218M633.697 665.25c29.108 35.506 48.235 84.314 43.203 132.785-41.56-1.63-92.197-27.6-122.292-62.897-26.609-30.794-50.062-80.362-43.52-128.27 46.177-2.805 93.657 24.182 122.609 58.382"  horiz-adv-x="1024" />
      
    </font>
</defs>
</svg>
